<svg id="6a05ba2b-0f45-485b-b813-c5e3bfdbf4df" data-name="Layer 1" xmlns="http://www.w3.org/2000/svg" viewBox="0 0 90 63.3"><title>youtubePlay</title><g id="46bb488f-fa61-4dc5-b7ea-0fda147dcaa0" data-name="YouTube icon"><path id="221baa49-f157-44e9-8b77-702a2fabb05e" data-name="Triangle" d="M35.71,43.32L60,30.72,35.71,18V43.32Z" style="fill:#fff"/><path id="6883f31d-0594-483a-bfef-31fa4aec76aa" data-name="The Sharpness" d="M35.71,18L57,32.28l3-1.55Z" style="fill:#3c1212;fill-rule:evenodd;opacity:0.12"/><g id="271dba90-c613-4736-8137-3a6982e53515" data-name="Lozenge"><path d="M89.1,13.66s-0.88-6.2-3.58-8.93c-3.42-3.58-7.26-3.6-9-3.81C63.91,0,45,0,45,0h0S26.09,0,13.49.91c-1.76.21-5.59,0.23-9,3.81C1.78,7.45.9,13.66,0.9,13.66A136.06,136.06,0,0,0,0,28.22v6.83A136.06,136.06,0,0,0,.9,49.62s0.88,6.2,3.58,8.93C7.9,62.13,12.4,62,14.4,62.4c7.2,0.69,30.6.9,30.6,0.9s18.91,0,31.51-.94c1.76-.21,5.6-0.23,9-3.81,2.7-2.73,3.58-8.93,3.58-8.93A136.35,136.35,0,0,0,90,35.05V28.22A136.36,136.36,0,0,0,89.1,13.66ZM35.71,43.32V18L60,30.72Z" style="fill:#d92632"/></g></g></svg>